<?xml version="1.0" encoding="UTF-8"?>
<svg id="Layer_1" xmlns="http://www.w3.org/2000/svg" version="1.1" viewBox="0 0 412.72 165.07">
  <!-- Generator: Adobe Illustrator 29.8.9, SVG Export Plug-In . SVG Version: 2.1.1 Build 1)  -->
  <defs>
    <style>
      .st0 {
        fill: #16a34a;
      }

      .st1 {
        fill: #39407f;
      }
    </style>
  </defs>
  <path class="st1" d="M8,80.49c1.4-7.5,9.36-11.81,16.41-8.87l19.75,8.22v21.17c0,9.94,8.06,18,18,18s18-8.06,18-18v-6.18l29.45,12.26c7.05,2.93,9.6,11.61,5.26,17.89l-24.09,34.91c-3.22,4.66-9.26,6.44-14.49,4.26L7.39,135.47c-5.23-2.18-8.23-7.71-7.18-13.28l7.79-41.7Z"/>
  <path class="st0" d="M341.95,98c-1.91,0-3.43-.49-4.57-1.47-1.14-1.02-1.96-2.42-2.46-4.21-.5-1.79-.75-3.87-.75-6.26,0-1.4.03-2.91.1-4.52.1-1.61.24-3.26.4-4.94.2-1.72.45-3.42.75-5.1.3-1.68.67-3.31,1.11-4.89.47-1.58.99-3.07,1.56-4.47,1.98-4.38,4.39-7.66,7.24-9.83,2.88-2.21,6.3-3.31,10.25-3.31,2.65,0,4.82.61,6.53,1.84,1.74,1.19,3.15,2.75,4.22,4.68,1.11,1.93,2.01,3.98,2.71,6.15.54,1.65,1.16,3.08,1.86,4.31.74,1.23,1.58,1.84,2.51,1.84,1.11,0,2.13-.51,3.07-1.53.94-1.02,1.93-2.51,2.96-4.47,1.27-2.38,2.63-4.5,4.07-6.36,1.47-1.86,3.2-3.31,5.18-4.36,1.98-1.05,4.36-1.58,7.14-1.58,3.99,0,7.17,1.09,9.55,3.26,2.38,2.14,4.1,5.08,5.18,8.83,1.07,3.75,1.61,8.01,1.61,12.78,0,1.51-.03,3.05-.1,4.63-.07,1.54-.18,3.07-.35,4.57-.13,1.51-.32,2.96-.55,4.36-.23,1.37-.5,2.65-.8,3.84-.7,2.1-1.67,3.66-2.91,4.68-1.21,1.02-2.81,1.52-4.82,1.52-1.84,0-3.37-.46-4.57-1.37-1.17-.91-2.06-2.14-2.66-3.68-.13-.63-.24-1.31-.3-2.05-.07-.77-.12-1.61-.15-2.52-.03-.95-.07-1.93-.1-2.94-.03-1.05-.07-2.16-.1-3.31,0-1.19-.02-2.45-.05-3.79-.1-1.82-.32-3.45-.65-4.89-.3-1.47-.74-2.61-1.31-3.42-.57-.84-1.31-1.26-2.21-1.26s-1.83.47-2.66,1.42c-.8.95-1.59,2.17-2.36,3.68-.77,1.51-1.52,3.1-2.26,4.79-1.37,3.29-2.83,5.71-4.37,7.25-1.51,1.51-3.58,2.26-6.23,2.26s-4.71-.81-6.08-2.42c-1.37-1.65-2.41-3.75-3.12-6.31-.5-2.03-1.01-3.79-1.51-5.26-.5-1.47-1.07-2.61-1.71-3.42-.6-.84-1.37-1.26-2.31-1.26-.84,0-1.64.42-2.41,1.26-.77.84-1.49,2.09-2.16,3.73-.64,1.75-1.16,3.56-1.56,5.42-.4,1.86-.74,3.68-1.01,5.47-.24,1.79-.42,3.45-.55,4.99-.5,2.8-1.36,4.78-2.56,5.94-1.17,1.12-3.07,1.68-5.68,1.68Z"/>
  <path class="st0" d="M259.95,98c-1.91,0-3.43-.49-4.57-1.47-1.14-1.02-1.96-2.42-2.46-4.21-.5-1.79-.75-3.87-.75-6.26,0-1.4.03-2.91.1-4.52.1-1.61.24-3.26.4-4.94.2-1.72.45-3.42.75-5.1.3-1.68.67-3.31,1.11-4.89.47-1.58.99-3.07,1.56-4.47,1.98-4.38,4.39-7.66,7.24-9.83,2.88-2.21,6.3-3.31,10.25-3.31,2.65,0,4.82.61,6.53,1.84,1.74,1.19,3.15,2.75,4.22,4.68,1.11,1.93,2.01,3.98,2.71,6.15.54,1.65,1.16,3.08,1.86,4.31.74,1.23,1.58,1.84,2.51,1.84,1.11,0,2.13-.51,3.07-1.53.94-1.02,1.93-2.51,2.96-4.47,1.27-2.38,2.63-4.5,4.07-6.36,1.47-1.86,3.2-3.31,5.18-4.36,1.98-1.05,4.36-1.58,7.14-1.58,3.99,0,7.17,1.09,9.55,3.26,2.38,2.14,4.1,5.08,5.18,8.83,1.07,3.75,1.61,8.01,1.61,12.78,0,1.51-.03,3.05-.1,4.63-.07,1.54-.18,3.07-.35,4.57-.13,1.51-.32,2.96-.55,4.36-.23,1.37-.5,2.65-.8,3.84-.7,2.1-1.67,3.66-2.91,4.68-1.21,1.02-2.81,1.52-4.82,1.52-1.84,0-3.37-.46-4.57-1.37-1.17-.91-2.06-2.14-2.66-3.68-.13-.63-.24-1.31-.3-2.05-.07-.77-.12-1.61-.15-2.52-.03-.95-.07-1.93-.1-2.94-.03-1.05-.07-2.16-.1-3.31,0-1.19-.02-2.45-.05-3.79-.1-1.82-.32-3.45-.65-4.89-.3-1.47-.74-2.61-1.31-3.42-.57-.84-1.31-1.26-2.21-1.26s-1.83.47-2.66,1.42c-.8.95-1.59,2.17-2.36,3.68-.77,1.51-1.52,3.1-2.26,4.79-1.37,3.29-2.83,5.71-4.37,7.25-1.51,1.51-3.58,2.26-6.23,2.26s-4.71-.81-6.08-2.42c-1.37-1.65-2.41-3.75-3.12-6.31-.5-2.03-1.01-3.79-1.51-5.26-.5-1.47-1.07-2.61-1.71-3.42-.6-.84-1.37-1.26-2.31-1.26-.84,0-1.64.42-2.41,1.26-.77.84-1.49,2.09-2.16,3.73-.64,1.75-1.16,3.56-1.56,5.42-.4,1.86-.74,3.68-1.01,5.47-.24,1.79-.42,3.45-.55,4.99-.5,2.8-1.36,4.78-2.56,5.94-1.17,1.12-3.07,1.68-5.68,1.68Z"/>
  <path class="st0" d="M176.95,98c-1.91,0-3.44-.49-4.57-1.47-1.14-1.02-1.96-2.42-2.46-4.21-.5-1.79-.75-3.87-.75-6.26,0-1.4.03-2.91.1-4.52.1-1.61.24-3.26.4-4.94.2-1.72.45-3.42.75-5.1.3-1.68.67-3.31,1.11-4.89.47-1.58.99-3.07,1.56-4.47,1.98-4.38,4.39-7.66,7.24-9.83,2.88-2.21,6.3-3.31,10.25-3.31,2.65,0,4.83.61,6.53,1.84,1.74,1.19,3.15,2.75,4.22,4.68,1.1,1.93,2.01,3.98,2.71,6.15.54,1.65,1.16,3.08,1.86,4.31.74,1.23,1.57,1.84,2.51,1.84,1.11,0,2.13-.51,3.07-1.53.94-1.02,1.93-2.51,2.96-4.47,1.27-2.38,2.63-4.5,4.07-6.36,1.47-1.86,3.2-3.31,5.18-4.36,1.98-1.05,4.36-1.58,7.14-1.58,3.99,0,7.17,1.09,9.55,3.26,2.38,2.14,4.1,5.08,5.18,8.83,1.07,3.75,1.61,8.01,1.61,12.78,0,1.51-.03,3.05-.1,4.63-.07,1.54-.18,3.07-.35,4.57-.13,1.51-.32,2.96-.55,4.36-.23,1.37-.5,2.65-.8,3.84-.7,2.1-1.67,3.66-2.91,4.68-1.21,1.02-2.81,1.52-4.82,1.52-1.84,0-3.37-.46-4.57-1.37-1.17-.91-2.06-2.14-2.66-3.68-.13-.63-.24-1.31-.3-2.05-.07-.77-.12-1.61-.15-2.52-.03-.95-.07-1.93-.1-2.94-.03-1.05-.07-2.16-.1-3.31,0-1.19-.02-2.45-.05-3.79-.1-1.82-.32-3.45-.65-4.89-.3-1.47-.74-2.61-1.31-3.42-.57-.84-1.31-1.26-2.21-1.26s-1.83.47-2.66,1.42c-.8.95-1.59,2.17-2.36,3.68-.77,1.51-1.52,3.1-2.26,4.79-1.37,3.29-2.83,5.71-4.37,7.25-1.51,1.51-3.58,2.26-6.23,2.26s-4.71-.81-6.08-2.42c-1.37-1.65-2.41-3.75-3.12-6.31-.5-2.03-1.01-3.79-1.51-5.26-.5-1.47-1.07-2.61-1.71-3.42-.6-.84-1.37-1.26-2.31-1.26-.84,0-1.64.42-2.41,1.26-.77.84-1.49,2.09-2.16,3.73-.64,1.75-1.16,3.56-1.56,5.42-.4,1.86-.74,3.68-1,5.47-.24,1.79-.42,3.45-.55,4.99-.5,2.8-1.36,4.78-2.56,5.94-1.17,1.12-3.07,1.68-5.68,1.68Z"/>
  <path class="st0" d="M131.21,101c-5.2,0-9.74-.73-13.63-2.19-3.88-1.46-7.13-3.62-9.73-6.46-2.57-2.88-4.49-6.41-5.77-10.58-1.28-4.2-1.93-9.01-1.93-14.42,0-1.43.05-2.81.15-4.17.13-1.35.34-2.65.61-3.9.27-1.25.59-2.39.96-3.42.91-2.64,2.2-4.59,3.85-5.88,1.69-1.32,3.72-1.98,6.08-1.98s4.05.41,5.17,1.23c1.15.82,1.91,1.85,2.28,3.1.4,1.21.64,2.42.71,3.63.03.78.05,1.62.05,2.51.03.89.07,1.8.1,2.72.03.89.07,1.76.1,2.62.03.85.09,1.64.15,2.35.24,3.67.74,6.82,1.52,9.46.81,2.64,2.01,4.67,3.6,6.09,1.59,1.43,3.68,2.14,6.28,2.14s4.56-.55,6.18-1.66c1.65-1.14,2.97-2.81,3.95-5.02,1.01-2.24,1.79-5.02,2.33-8.33.2-1.07.35-2.12.46-3.15.13-1.07.24-2.12.3-3.15.1-1.03.22-2.08.35-3.15.14-1.07.3-2.12.51-3.15.57-2.35,1.54-4.22,2.89-5.61,1.39-1.42,3.41-2.14,6.08-2.14,2.3,0,4.04.69,5.22,2.08,1.22,1.39,2.08,3.28,2.58,5.66.13,1.1.24,2.26.3,3.47.1,1.18.17,2.37.2,3.58.03,1.21.03,2.44,0,3.69,0,1.25-.03,2.47-.1,3.69-.24,6.91-1.65,12.61-4.26,17.1-2.6,4.49-6.23,7.82-10.89,9.99-4.63,2.17-10.18,3.26-16.67,3.26Z"/>
  <path class="st0" d="M51.16,101v-34c0-6.07,4.92-11,11-11s11,4.92,11,11v34c0,6.07-4.92,11-11,11s-11-4.93-11-11Z"/>
  <path class="st0" d="M100.93,3.91c3.92-4.64,10.86-5.23,15.5-1.32,4.64,3.92,5.23,10.86,1.31,15.5l-44.09,52.27c-6.1,7.24-17.31,7.08-23.2-.33l-22.73-28.56c-3.78-4.75-3-11.67,1.76-15.46,4.75-3.78,11.67-3,15.46,1.76l17.4,21.87L100.93,3.91Z"/>
</svg>